<!-- Generated by IcoMoon.io -->
<svg version="1.1" xmlns="http://www.w3.org/2000/svg" width="32" height="32" viewBox="0 0 32 32">
<title>client4</title>
<path fill="#2196f3" d="M4.949 13.027h-0.001c-0.903 0-1.635 0.65-1.635 1.453v0.001c0 0.802 0.732 1.453 1.635 1.453h0.001c0.903 0 1.635-0.651 1.635-1.453v-0.001c0-0.803-0.732-1.453-1.635-1.453zM17.015 12.563c-0.003-1.114-0.502-2.183-1.388-2.971s-2.088-1.232-3.342-1.234c-1.254 0.002-2.457 0.446-3.344 1.234s-1.387 1.856-1.389 2.971v6.145s9.462-0.937 9.463-6.144v-0.001zM0 20.725c0.002 0.776 0.35 1.518 0.967 2.067s1.453 0.857 2.325 0.859c0.872-0.002 1.708-0.311 2.325-0.859s0.965-1.291 0.967-2.066v-4.276s-6.584 0.652-6.584 4.275zM3.292 21.49c-0.171 0-0.337-0.045-0.479-0.129-0.138-0.081-0.247-0.198-0.315-0.339l-0.002-0.005c-0.041-0.086-0.065-0.186-0.065-0.293 0-0.053 0.006-0.105 0.017-0.154l-0.001 0.005c0.033-0.149 0.115-0.285 0.236-0.392s0.27-0.18 0.436-0.209l0.005-0.001c0.051-0.009 0.109-0.015 0.168-0.015 0.118 0 0.232 0.021 0.336 0.060l-0.007-0.002c0.158 0.058 0.293 0.156 0.387 0.282s0.145 0.274 0.145 0.425c0 0.101-0.021 0.201-0.065 0.294-0.047 0.098-0.109 0.181-0.186 0.249l-0.001 0.001c-0.080 0.072-0.175 0.128-0.28 0.167-0.098 0.037-0.212 0.059-0.33 0.059 0 0 0 0-0.001 0v0-0.003zM9.946 21.069h-0.635v0.656h-0.331v-1.606h1.046v0.268h-0.715v0.415h0.635v0.267zM11.536 20.959c0 0.158-0.028 0.297-0.084 0.416s-0.136 0.211-0.241 0.276c-0.098 0.061-0.217 0.097-0.345 0.097-0.004 0-0.008 0-0.012 0h0.001c-0.133 0-0.252-0.032-0.357-0.096-0.105-0.066-0.189-0.159-0.241-0.27l-0.002-0.004c-0.055-0.116-0.087-0.253-0.087-0.397 0-0.005 0-0.009 0-0.014v0.001-0.079c0-0.158 0.029-0.297 0.085-0.417s0.138-0.213 0.242-0.277c0.104-0.065 0.223-0.097 0.357-0.097s0.252 0.032 0.356 0.097c0.104 0.064 0.185 0.156 0.242 0.277s0.086 0.258 0.086 0.416v0.072zM11.201 20.885c0-0.168-0.030-0.296-0.090-0.384-0.054-0.080-0.143-0.131-0.245-0.131-0.005 0-0.009 0-0.014 0h0.001c-0.004 0-0.008 0-0.013 0-0.101 0-0.191 0.051-0.244 0.13l-0.001 0.001c-0.060 0.086-0.091 0.212-0.091 0.379v0.078c0 0.164 0.030 0.291 0.090 0.381s0.147 0.136 0.261 0.136c0.004 0 0.008 0 0.013 0 0.101 0 0.19-0.051 0.242-0.129l0.001-0.001c0.059-0.087 0.090-0.215 0.090-0.382v-0.078zM12.609 21.303c0-0.003 0-0.006 0-0.009 0-0.054-0.026-0.103-0.066-0.133v0c-0.044-0.034-0.123-0.069-0.238-0.106-0.106-0.033-0.196-0.070-0.282-0.115l0.010 0.005c-0.183-0.099-0.274-0.232-0.274-0.398 0-0.087 0.024-0.164 0.073-0.232 0.049-0.069 0.12-0.122 0.211-0.16s0.195-0.057 0.309-0.057c0.115 0 0.217 0.021 0.307 0.063s0.159 0.099 0.208 0.175c0.050 0.075 0.075 0.162 0.075 0.258h-0.331c0-0.073-0.023-0.131-0.069-0.171-0.046-0.041-0.111-0.062-0.195-0.062-0.081 0-0.144 0.017-0.189 0.052-0.041 0.029-0.067 0.077-0.067 0.131 0 0.001 0 0.003 0 0.004v0c0 0.052 0.026 0.096 0.078 0.131s0.131 0.068 0.233 0.099c0.188 0.056 0.325 0.127 0.411 0.211s0.129 0.188 0.129 0.313c0 0.139-0.053 0.248-0.158 0.328s-0.246 0.118-0.424 0.118c-0.123 0-0.236-0.023-0.338-0.068-0.095-0.040-0.174-0.104-0.232-0.184l-0.001-0.002c-0.050-0.074-0.079-0.165-0.079-0.264 0-0.004 0-0.007 0-0.011v0.001h0.332c0 0.177 0.106 0.266 0.318 0.266 0.079 0 0.14-0.016 0.184-0.047 0.040-0.029 0.066-0.076 0.066-0.128 0-0.002 0-0.004 0-0.007v0zM14.375 20.387h-0.492v1.338h-0.331v-1.338h-0.485v-0.268h1.308v0.268zM15.531 21.029h-0.635v0.43h0.745v0.266h-1.076v-1.606h1.074v0.268h-0.744v0.383h0.635v0.259zM16.43 21.137h-0.264v0.588h-0.331v-1.606h0.597c0.19 0 0.336 0.043 0.439 0.127s0.154 0.204 0.154 0.358c0 0.11-0.024 0.201-0.072 0.275-0.053 0.077-0.126 0.137-0.212 0.173l-0.003 0.001 0.347 0.656v0.015h-0.355l-0.301-0.587zM16.166 20.869h0.267c0.083 0 0.147-0.021 0.193-0.063 0.042-0.041 0.068-0.099 0.068-0.163 0-0.004 0-0.009 0-0.013v0.001c0-0.076-0.021-0.136-0.065-0.179s-0.108-0.065-0.198-0.065h-0.266v0.482zM18.171 21.159v0.566h-0.331v-1.606h0.626c0.12 0 0.227 0.022 0.318 0.066s0.163 0.107 0.212 0.189c0.049 0.081 0.074 0.173 0.074 0.277 0 0.157-0.054 0.282-0.162 0.373s-0.256 0.136-0.447 0.136h-0.29zM18.171 20.891h0.296c0.088 0 0.154-0.021 0.2-0.062 0.047-0.041 0.070-0.1 0.070-0.177 0-0.004 0-0.008 0-0.012 0-0.069-0.026-0.132-0.070-0.179v0c-0.046-0.048-0.11-0.073-0.192-0.075h-0.303v0.504zM20.264 21.029h-0.635v0.43h0.745v0.266h-1.076v-1.606h1.074v0.268h-0.744v0.383h0.635v0.259zM21.8 20.387h-0.492v1.338h-0.331v-1.338h-0.485v-0.268h1.308v0.268zM22.956 21.029h-0.635v0.43h0.745v0.266h-1.077v-1.606h1.074v0.268h-0.743v0.383h0.635v0.259zM23.855 21.137h-0.264v0.588h-0.331v-1.606h0.597c0.19 0 0.336 0.043 0.439 0.127s0.154 0.204 0.154 0.358c0 0.11-0.024 0.201-0.072 0.275-0.053 0.077-0.126 0.137-0.212 0.173l-0.003 0.001 0.347 0.656v0.015h-0.355l-0.301-0.587zM23.591 20.869h0.267c0.083 0 0.147-0.021 0.193-0.063 0.043-0.042 0.069-0.099 0.069-0.163 0-0.004 0-0.008 0-0.013v0.001c0-0.076-0.021-0.136-0.065-0.179-0.043-0.043-0.108-0.065-0.197-0.065h-0.266v0.482zM25.536 21.304c0-0.003 0-0.006 0-0.009 0-0.055-0.026-0.103-0.066-0.134v0c-0.044-0.034-0.123-0.069-0.238-0.106-0.106-0.033-0.196-0.070-0.282-0.115l0.010 0.005c-0.183-0.099-0.274-0.232-0.274-0.398 0-0.087 0.024-0.164 0.073-0.232 0.049-0.069 0.12-0.122 0.211-0.16s0.195-0.057 0.309-0.057c0.115 0 0.217 0.021 0.307 0.063s0.159 0.099 0.208 0.175c0.050 0.075 0.075 0.162 0.075 0.258h-0.331c0-0.073-0.023-0.131-0.069-0.171-0.046-0.041-0.111-0.062-0.195-0.062-0.081 0-0.144 0.017-0.189 0.052-0.041 0.029-0.068 0.077-0.068 0.131 0 0.001 0 0.002 0 0.004v0c0 0.052 0.026 0.096 0.079 0.131s0.131 0.068 0.233 0.099c0.188 0.056 0.325 0.127 0.411 0.211s0.129 0.188 0.129 0.313c0 0.139-0.053 0.248-0.158 0.328s-0.247 0.118-0.424 0.118c-0.123 0-0.236-0.023-0.338-0.068-0.095-0.040-0.174-0.104-0.232-0.184l-0.001-0.002c-0.050-0.074-0.079-0.165-0.079-0.264 0-0.004 0-0.007 0-0.011v0.001h0.332c0 0.177 0.106 0.266 0.318 0.266 0.079 0 0.14-0.016 0.184-0.047 0.040-0.029 0.066-0.076 0.066-0.128 0-0.002 0-0.004 0-0.006v0z"></path>
</svg>
